<?xml version="1.0" standalone="no"?>
<!DOCTYPE svg PUBLIC "-//W3C//DTD SVG 20010904//EN"
 "http://www.w3.org/TR/2001/REC-SVG-20010904/DTD/svg10.dtd">
<svg version="1.0" xmlns="http://www.w3.org/2000/svg"
 width="3258.000000pt" height="3258.000000pt" viewBox="0 0 3258.000000 3258.000000"
 preserveAspectRatio="xMidYMid meet">
<metadata>
Created by potrace 1.16, written by Peter Selinger 2001-2019
</metadata>
<g transform="translate(0.000000,3258.000000) scale(0.100000,-0.100000)"
fill="#000000" stroke="none">
<path d="M16280 26558 l0 -6023 -4995 -2270 c-2747 -1248 -4995 -2272 -4995
-2275 0 -3 2248 -1334 4996 -2959 4920 -2908 4997 -2953 5025 -2940 16 8 2267
1337 5003 2954 3052 1803 4974 2945 4971 2952 -9 27 -9990 16583 -9997 16583
-5 0 -8 -2710 -8 -6022z"/>
<path d="M21305 11159 c-2739 -1617 -4990 -2947 -5002 -2955 l-23 -14 0 -4097
c0 -3534 2 -4095 14 -4083 20 21 9987 14060 9993 14076 3 8 4 14 2 14 -2 0
-2245 -1323 -4984 -2941z"/>
</g>
</svg>
